<?xml version="1.0" encoding="UTF-8" standalone="no"?>
<svg
   sodipodi:docname="1 - Coding.svg"
   inkscape:version="1.1 (1:1.1+202106031931+af4d65493e)"
   id="svg831"
   version="1.1"
   viewBox="0 0 22.577778 22.577778"
   height="64pt"
   width="64pt"
   inkscape:export-filename="/media/taufikramadhan/Data/Tr Design Studio/Project Design/TR Creative Design/Icon Design/Project Hiring/Icon Icons/007 - Design And Development/Team/finish project september adnan/filled line/svg/1 - Coding.png"
   inkscape:export-xdpi="576"
   inkscape:export-ydpi="576"
   xmlns:inkscape="http://www.inkscape.org/namespaces/inkscape"
   xmlns:sodipodi="http://sodipodi.sourceforge.net/DTD/sodipodi-0.dtd"
   xmlns="http://www.w3.org/2000/svg"
   xmlns:svg="http://www.w3.org/2000/svg"
   xmlns:rdf="http://www.w3.org/1999/02/22-rdf-syntax-ns#"
   xmlns:cc="http://creativecommons.org/ns#"
   xmlns:dc="http://purl.org/dc/elements/1.1/">
  <defs
     id="defs825">
    <pattern
       y="0"
       x="0"
       height="6"
       width="6"
       patternUnits="userSpaceOnUse"
       id="EMFhbasepattern" />
    <pattern
       y="0"
       x="0"
       height="6"
       width="6"
       patternUnits="userSpaceOnUse"
       id="EMFhbasepattern-9" />
    <pattern
       y="0"
       x="0"
       height="6"
       width="6"
       patternUnits="userSpaceOnUse"
       id="EMFhbasepattern-0" />
    <pattern
       y="0"
       x="0"
       height="6"
       width="6"
       patternUnits="userSpaceOnUse"
       id="EMFhbasepattern-7" />
    <pattern
       y="0"
       x="0"
       height="6"
       width="6"
       patternUnits="userSpaceOnUse"
       id="EMFhbasepattern-2" />
    <pattern
       y="0"
       x="0"
       height="6"
       width="6"
       patternUnits="userSpaceOnUse"
       id="EMFhbasepattern-98" />
    <pattern
       y="0"
       x="0"
       height="6"
       width="6"
       patternUnits="userSpaceOnUse"
       id="EMFhbasepattern-6" />
    <pattern
       y="0"
       x="0"
       height="6"
       width="6"
       patternUnits="userSpaceOnUse"
       id="EMFhbasepattern-01" />
    <pattern
       y="0"
       x="0"
       height="6"
       width="6"
       patternUnits="userSpaceOnUse"
       id="EMFhbasepattern-07" />
    <pattern
       y="0"
       x="0"
       height="6"
       width="6"
       patternUnits="userSpaceOnUse"
       id="EMFhbasepattern-8" />
    <pattern
       y="0"
       x="0"
       height="6"
       width="6"
       patternUnits="userSpaceOnUse"
       id="EMFhbasepattern-4" />
    <pattern
       y="0"
       x="0"
       height="6"
       width="6"
       patternUnits="userSpaceOnUse"
       id="EMFhbasepattern-40" />
    <pattern
       y="0"
       x="0"
       height="6"
       width="6"
       patternUnits="userSpaceOnUse"
       id="EMFhbasepattern-08" />
    <pattern
       y="0"
       x="0"
       height="6"
       width="6"
       patternUnits="userSpaceOnUse"
       id="EMFhbasepattern-04" />
    <pattern
       y="0"
       x="0"
       height="6"
       width="6"
       patternUnits="userSpaceOnUse"
       id="EMFhbasepattern-014" />
    <pattern
       y="0"
       x="0"
       height="6"
       width="6"
       patternUnits="userSpaceOnUse"
       id="EMFhbasepattern-27" />
    <pattern
       y="0"
       x="0"
       height="6"
       width="6"
       patternUnits="userSpaceOnUse"
       id="EMFhbasepattern-09" />
    <pattern
       y="0"
       x="0"
       height="6"
       width="6"
       patternUnits="userSpaceOnUse"
       id="EMFhbasepattern-5" />
    <pattern
       y="0"
       x="0"
       height="6"
       width="6"
       patternUnits="userSpaceOnUse"
       id="EMFhbasepattern-018" />
  </defs>
  <sodipodi:namedview
     inkscape:document-rotation="0"
     inkscape:snap-global="true"
     inkscape:snap-nodes="false"
     inkscape:bbox-nodes="true"
     inkscape:snap-bbox="true"
     showguides="false"
     inkscape:snap-midpoints="true"
     inkscape:snap-smooth-nodes="true"
     inkscape:snap-intersection-paths="true"
     inkscape:object-paths="true"
     inkscape:showpageshadow="false"
     inkscape:pagecheckerboard="true"
     inkscape:window-maximized="1"
     inkscape:window-y="31"
     inkscape:window-x="0"
     inkscape:window-height="705"
     inkscape:window-width="1366"
     units="pt"
     showgrid="false"
     inkscape:current-layer="layer1"
     inkscape:document-units="pt"
     inkscape:cy="50.133336"
     inkscape:cx="30.800002"
     inkscape:zoom="3.7499998"
     inkscape:pageshadow="2"
     inkscape:pageopacity="0.0"
     borderopacity="1.0"
     bordercolor="#666666"
     pagecolor="#ffffff"
     id="base">
    <inkscape:grid
       id="grid1378"
       type="xygrid" />
    <sodipodi:guide
       inkscape:locked="false"
       id="guide1380"
       orientation="78.000048,0"
       position="0.97013831,21.607643" />
    <sodipodi:guide
       inkscape:locked="false"
       id="guide1382"
       orientation="0,78.000005"
       position="0.97013831,0.97013129" />
    <sodipodi:guide
       inkscape:locked="false"
       id="guide1384"
       orientation="-78.000048,0"
       position="21.607639,0.97013129" />
    <sodipodi:guide
       inkscape:locked="false"
       id="guide1386"
       orientation="0,-78.000005"
       position="21.607639,21.607643" />
  </sodipodi:namedview>
  <metadata
     id="metadata828">
    <rdf:RDF>
      <cc:Work
         rdf:about="">
        <dc:format>image/svg+xml</dc:format>
        <dc:type
           rdf:resource="http://purl.org/dc/dcmitype/StillImage" />
      </cc:Work>
    </rdf:RDF>
  </metadata>
  <g
     transform="translate(0,-274.42223)"
     id="layer1"
     inkscape:groupmode="layer"
     inkscape:label="Icon">
    <g
       id="g42125"
       transform="matrix(1.2581835,0,0,1.2581835,76.060077,-115.69495)"
       style="stroke-width:0.794797">
      <path
         style="color:#000000;font-style:normal;font-variant:normal;font-weight:normal;font-stretch:normal;font-size:medium;line-height:normal;font-family:sans-serif;font-variant-ligatures:normal;font-variant-position:normal;font-variant-caps:normal;font-variant-numeric:normal;font-variant-alternates:normal;font-variant-east-asian:normal;font-feature-settings:normal;font-variation-settings:normal;text-indent:0;text-align:start;text-decoration:none;text-decoration-line:none;text-decoration-style:solid;text-decoration-color:#000000;letter-spacing:normal;word-spacing:normal;text-transform:none;writing-mode:lr-tb;direction:ltr;text-orientation:mixed;dominant-baseline:auto;baseline-shift:baseline;text-anchor:start;white-space:normal;shape-padding:0;shape-margin:0;inline-size:0;clip-rule:nonzero;display:inline;overflow:visible;visibility:visible;isolation:auto;mix-blend-mode:normal;color-interpolation:sRGB;color-interpolation-filters:linearRGB;solid-color:#000000;solid-opacity:1;vector-effect:none;fill:#3a4d5c;fill-opacity:1;fill-rule:nonzero;stroke:none;stroke-width:0.42058;stroke-linecap:round;stroke-linejoin:round;stroke-miterlimit:4;stroke-dasharray:none;stroke-dashoffset:0;stroke-opacity:1;color-rendering:auto;image-rendering:auto;shape-rendering:auto;text-rendering:auto;enable-background:accumulate;stop-color:#000000"
         d="m -58.837235,312.42193 c -0.252662,0 -0.476498,0.13454 -0.621094,0.32226 -0.144596,0.18772 -0.222656,0.43227 -0.222656,0.69531 v 8.01953 c 0,0.26304 0.07806,0.50565 0.222656,0.69336 0.144596,0.18772 0.368432,0.32422 0.621094,0.32422 h 14.714843 c 0.252662,0 0.476498,-0.1365 0.621094,-0.32422 0.144596,-0.18771 0.222656,-0.43032 0.222656,-0.69336 v -8.01953 c 0,-0.26304 -0.07806,-0.50759 -0.222656,-0.69531 -0.144596,-0.18772 -0.368432,-0.32226 -0.621094,-0.32226 z"
         id="path1281" />
      <path
         style="color:#000000;font-style:normal;font-variant:normal;font-weight:normal;font-stretch:normal;font-size:medium;line-height:normal;font-family:sans-serif;font-variant-ligatures:normal;font-variant-position:normal;font-variant-caps:normal;font-variant-numeric:normal;font-variant-alternates:normal;font-variant-east-asian:normal;font-feature-settings:normal;font-variation-settings:normal;text-indent:0;text-align:start;text-decoration:none;text-decoration-line:none;text-decoration-style:solid;text-decoration-color:#000000;letter-spacing:normal;word-spacing:normal;text-transform:none;writing-mode:lr-tb;direction:ltr;text-orientation:mixed;dominant-baseline:auto;baseline-shift:baseline;text-anchor:start;white-space:normal;shape-padding:0;shape-margin:0;inline-size:0;clip-rule:nonzero;display:inline;overflow:visible;visibility:visible;isolation:auto;mix-blend-mode:normal;color-interpolation:sRGB;color-interpolation-filters:linearRGB;solid-color:#000000;solid-opacity:1;vector-effect:none;fill:#3a4d5c;fill-opacity:1;fill-rule:nonzero;stroke:none;stroke-width:0.42058;stroke-linecap:round;stroke-linejoin:round;stroke-miterlimit:4;stroke-dasharray:none;stroke-dashoffset:0;stroke-opacity:1;color-rendering:auto;image-rendering:auto;shape-rendering:auto;text-rendering:auto;enable-background:accumulate;stop-color:#000000"
         d="m -52.802079,321.94732 a 0.26460996,0.26460996 0 0 0 -0.261719,0.22656 l -0.265625,1.85156 a 0.26460996,0.26460996 0 0 0 0.261719,0.30274 h 3.175781 a 0.26460996,0.26460996 0 0 0 0.261719,-0.30274 l -0.265625,-1.85156 a 0.26460996,0.26460996 0 0 0 -0.261719,-0.22656 z"
         id="path1252" />
      <path
         style="color:#000000;font-style:normal;font-variant:normal;font-weight:normal;font-stretch:normal;font-size:medium;line-height:normal;font-family:sans-serif;font-variant-ligatures:normal;font-variant-position:normal;font-variant-caps:normal;font-variant-numeric:normal;font-variant-alternates:normal;font-variant-east-asian:normal;font-feature-settings:normal;font-variation-settings:normal;text-indent:0;text-align:start;text-decoration:none;text-decoration-line:none;text-decoration-style:solid;text-decoration-color:#000000;letter-spacing:normal;word-spacing:normal;text-transform:none;writing-mode:lr-tb;direction:ltr;text-orientation:mixed;dominant-baseline:auto;baseline-shift:baseline;text-anchor:start;white-space:normal;shape-padding:0;shape-margin:0;inline-size:0;clip-rule:nonzero;display:inline;overflow:visible;visibility:visible;isolation:auto;mix-blend-mode:normal;color-interpolation:sRGB;color-interpolation-filters:linearRGB;solid-color:#000000;solid-opacity:1;vector-effect:none;fill:#f5f6e8;fill-opacity:1;fill-rule:nonzero;stroke:none;stroke-width:0.42058;stroke-linecap:round;stroke-linejoin:round;stroke-miterlimit:4;stroke-dasharray:none;stroke-dashoffset:0;stroke-opacity:1;color-rendering:auto;image-rendering:auto;shape-rendering:auto;text-rendering:auto;enable-background:accumulate;stop-color:#000000"
         d="m -54.919267,323.79888 c -0.420842,0 -0.812775,0.22116 -1.029296,0.58203 l -0.248047,0.41602 c -0.21882,0.3647 0.05906,0.85351 0.484375,0.85351 h 8.464843 c 0.425312,0 0.703196,-0.48881 0.484375,-0.85351 l -0.248046,-0.41602 c -0.216522,-0.36087 -0.608455,-0.58203 -1.029297,-0.58203 z"
         id="path1238" />
      <path
         id="path1336"
         style="fill:#143441;fill-opacity:1;stroke:none;stroke-width:0.42058;stroke-linecap:round;stroke-linejoin:round;stroke-opacity:1"
         d="m -58.837355,312.42212 c -0.252661,0 -0.476554,0.13423 -0.621152,0.32195 -0.144595,0.18771 -0.222723,0.43252 -0.222723,0.69556 v 2.80655 h 11.179678 c 0.994473,-0.009 1.804197,0.79712 1.799891,1.79162 v 4.43901 h 2.579163 c 0.252661,0 0.476554,-0.13681 0.621149,-0.32453 0.144597,-0.18771 0.222726,-0.43046 0.222726,-0.6935 v -8.01915 c 0,-0.26304 -0.07813,-0.50785 -0.222726,-0.69556 -0.144595,-0.18772 -0.368488,-0.32195 -0.621149,-0.32195 z"
         sodipodi:nodetypes="sssccccsssssss" />
      <path
         style="color:#000000;font-style:normal;font-variant:normal;font-weight:normal;font-stretch:normal;font-size:medium;line-height:normal;font-family:sans-serif;font-variant-ligatures:normal;font-variant-position:normal;font-variant-caps:normal;font-variant-numeric:normal;font-variant-alternates:normal;font-variant-east-asian:normal;font-feature-settings:normal;font-variation-settings:normal;text-indent:0;text-align:start;text-decoration:none;text-decoration-line:none;text-decoration-style:solid;text-decoration-color:#000000;letter-spacing:normal;word-spacing:normal;text-transform:none;writing-mode:lr-tb;direction:ltr;text-orientation:mixed;dominant-baseline:auto;baseline-shift:baseline;text-anchor:start;white-space:normal;shape-padding:0;shape-margin:0;inline-size:0;clip-rule:nonzero;display:inline;overflow:visible;visibility:visible;isolation:auto;mix-blend-mode:normal;color-interpolation:sRGB;color-interpolation-filters:linearRGB;solid-color:#000000;solid-opacity:1;vector-effect:none;fill:#f5f6e8;fill-opacity:1;fill-rule:nonzero;stroke:none;stroke-width:0.42058;stroke-linecap:round;stroke-linejoin:round;stroke-miterlimit:4;stroke-dasharray:none;stroke-dashoffset:0;stroke-opacity:1;color-rendering:auto;image-rendering:auto;shape-rendering:auto;text-rendering:auto;enable-background:accumulate;stop-color:#000000"
         d="m -52.934892,319.56646 a 0.2645835,0.2645835 0 0 0 -0.265625,0.26367 0.2645835,0.2645835 0 0 0 0.265625,0.26367 h 0.263672 a 0.2645835,0.2645835 0 0 0 0.265625,-0.26367 0.2645835,0.2645835 0 0 0 -0.265625,-0.26367 z"
         id="path1184" />
      <path
         style="color:#000000;font-style:normal;font-variant:normal;font-weight:normal;font-stretch:normal;font-size:medium;line-height:normal;font-family:sans-serif;font-variant-ligatures:normal;font-variant-position:normal;font-variant-caps:normal;font-variant-numeric:normal;font-variant-alternates:normal;font-variant-east-asian:normal;font-feature-settings:normal;font-variation-settings:normal;text-indent:0;text-align:start;text-decoration:none;text-decoration-line:none;text-decoration-style:solid;text-decoration-color:#000000;letter-spacing:normal;word-spacing:normal;text-transform:none;writing-mode:lr-tb;direction:ltr;text-orientation:mixed;dominant-baseline:auto;baseline-shift:baseline;text-anchor:start;white-space:normal;shape-padding:0;shape-margin:0;inline-size:0;clip-rule:nonzero;display:inline;overflow:visible;visibility:visible;isolation:auto;mix-blend-mode:normal;color-interpolation:sRGB;color-interpolation-filters:linearRGB;solid-color:#000000;solid-opacity:1;vector-effect:none;fill:#f5f6e8;fill-opacity:1;fill-rule:nonzero;stroke:none;stroke-width:0.42058;stroke-linecap:round;stroke-linejoin:round;stroke-miterlimit:4;stroke-dasharray:none;stroke-dashoffset:0;stroke-opacity:1;color-rendering:auto;image-rendering:auto;shape-rendering:auto;text-rendering:auto;enable-background:accumulate;stop-color:#000000"
         d="m -51.612626,319.56646 a 0.2645835,0.2645835 0 0 0 -0.263672,0.26367 0.2645835,0.2645835 0 0 0 0.263672,0.26367 h 0.265625 a 0.2645835,0.2645835 0 0 0 0.263672,-0.26367 0.2645835,0.2645835 0 0 0 -0.263672,-0.26367 z"
         id="path1188" />
      <path
         style="color:#000000;font-style:normal;font-variant:normal;font-weight:normal;font-stretch:normal;font-size:medium;line-height:normal;font-family:sans-serif;font-variant-ligatures:normal;font-variant-position:normal;font-variant-caps:normal;font-variant-numeric:normal;font-variant-alternates:normal;font-variant-east-asian:normal;font-feature-settings:normal;font-variation-settings:normal;text-indent:0;text-align:start;text-decoration:none;text-decoration-line:none;text-decoration-style:solid;text-decoration-color:#000000;letter-spacing:normal;word-spacing:normal;text-transform:none;writing-mode:lr-tb;direction:ltr;text-orientation:mixed;dominant-baseline:auto;baseline-shift:baseline;text-anchor:start;white-space:normal;shape-padding:0;shape-margin:0;inline-size:0;clip-rule:nonzero;display:inline;overflow:visible;visibility:visible;isolation:auto;mix-blend-mode:normal;color-interpolation:sRGB;color-interpolation-filters:linearRGB;solid-color:#000000;solid-opacity:1;vector-effect:none;fill:#f5f6e8;fill-opacity:1;fill-rule:nonzero;stroke:none;stroke-width:0.42058;stroke-linecap:round;stroke-linejoin:round;stroke-miterlimit:4;stroke-dasharray:none;stroke-dashoffset:0;stroke-opacity:1;color-rendering:auto;image-rendering:auto;shape-rendering:auto;text-rendering:auto;enable-background:accumulate;stop-color:#000000"
         d="m -50.288407,319.56646 a 0.2645835,0.2645835 0 0 0 -0.265625,0.26367 0.2645835,0.2645835 0 0 0 0.265625,0.26367 h 0.263672 a 0.2645835,0.2645835 0 0 0 0.265625,-0.26367 0.2645835,0.2645835 0 0 0 -0.265625,-0.26367 z"
         id="path1192" />
      <path
         style="color:#000000;font-style:normal;font-variant:normal;font-weight:normal;font-stretch:normal;font-size:medium;line-height:normal;font-family:sans-serif;font-variant-ligatures:normal;font-variant-position:normal;font-variant-caps:normal;font-variant-numeric:normal;font-variant-alternates:normal;font-variant-east-asian:normal;font-feature-settings:normal;font-variation-settings:normal;text-indent:0;text-align:start;text-decoration:none;text-decoration-line:none;text-decoration-style:solid;text-decoration-color:#000000;letter-spacing:normal;word-spacing:normal;text-transform:none;writing-mode:lr-tb;direction:ltr;text-orientation:mixed;dominant-baseline:auto;baseline-shift:baseline;text-anchor:start;white-space:normal;shape-padding:0;shape-margin:0;inline-size:0;clip-rule:nonzero;display:inline;overflow:visible;visibility:visible;isolation:auto;mix-blend-mode:normal;color-interpolation:sRGB;color-interpolation-filters:linearRGB;solid-color:#000000;solid-opacity:1;vector-effect:none;fill:#3a4d5c;fill-opacity:1;fill-rule:nonzero;stroke:none;stroke-width:0.42058;stroke-linecap:round;stroke-linejoin:round;stroke-miterlimit:4;stroke-dasharray:none;stroke-dashoffset:0;stroke-opacity:1;color-rendering:auto;image-rendering:auto;shape-rendering:auto;text-rendering:auto;enable-background:accumulate;stop-color:#000000"
         d="m -56.770829,325.12114 a 0.2645835,0.2645835 0 0 0 -0.265625,0.26563 0.2645835,0.2645835 0 0 0 0.265625,0.26367 h 10.582031 a 0.2645835,0.2645835 0 0 0 0.265625,-0.26367 0.2645835,0.2645835 0 0 0 -0.265625,-0.26563 z"
         id="path1202" />
      <path
         style="color:#000000;font-style:normal;font-variant:normal;font-weight:normal;font-stretch:normal;font-size:medium;line-height:normal;font-family:sans-serif;font-variant-ligatures:normal;font-variant-position:normal;font-variant-caps:normal;font-variant-numeric:normal;font-variant-alternates:normal;font-variant-east-asian:normal;font-feature-settings:normal;font-variation-settings:normal;text-indent:0;text-align:start;text-decoration:none;text-decoration-line:none;text-decoration-style:solid;text-decoration-color:#000000;letter-spacing:normal;word-spacing:normal;text-transform:none;writing-mode:lr-tb;direction:ltr;text-orientation:mixed;dominant-baseline:auto;baseline-shift:baseline;text-anchor:start;white-space:normal;shape-padding:0;shape-margin:0;inline-size:0;clip-rule:nonzero;display:inline;overflow:visible;visibility:visible;isolation:auto;mix-blend-mode:normal;color-interpolation:sRGB;color-interpolation-filters:linearRGB;solid-color:#000000;solid-opacity:1;vector-effect:none;fill:#3a4d5c;fill-opacity:1;fill-rule:nonzero;stroke:none;stroke-width:0.42058;stroke-linecap:round;stroke-linejoin:round;stroke-miterlimit:4;stroke-dasharray:none;stroke-dashoffset:0;stroke-opacity:1;color-rendering:auto;image-rendering:auto;shape-rendering:auto;text-rendering:auto;enable-background:accumulate;stop-color:#000000"
         d="m -58.095048,325.12114 a 0.2645835,0.2645835 0 0 0 -0.263672,0.26563 0.2645835,0.2645835 0 0 0 0.263672,0.26367 h 0.265625 a 0.2645835,0.2645835 0 0 0 0.263672,-0.26367 0.2645835,0.2645835 0 0 0 -0.263672,-0.26563 z"
         id="path1208" />
      <path
         style="color:#000000;font-style:normal;font-variant:normal;font-weight:normal;font-stretch:normal;font-size:medium;line-height:normal;font-family:sans-serif;font-variant-ligatures:normal;font-variant-position:normal;font-variant-caps:normal;font-variant-numeric:normal;font-variant-alternates:normal;font-variant-east-asian:normal;font-feature-settings:normal;font-variation-settings:normal;text-indent:0;text-align:start;text-decoration:none;text-decoration-line:none;text-decoration-style:solid;text-decoration-color:#000000;letter-spacing:normal;word-spacing:normal;text-transform:none;writing-mode:lr-tb;direction:ltr;text-orientation:mixed;dominant-baseline:auto;baseline-shift:baseline;text-anchor:start;white-space:normal;shape-padding:0;shape-margin:0;inline-size:0;clip-rule:nonzero;display:inline;overflow:visible;visibility:visible;isolation:auto;mix-blend-mode:normal;color-interpolation:sRGB;color-interpolation-filters:linearRGB;solid-color:#000000;solid-opacity:1;vector-effect:none;fill:#f5f6e8;fill-opacity:1;fill-rule:nonzero;stroke:none;stroke-width:0.420579;stroke-linecap:round;stroke-linejoin:round;stroke-miterlimit:4;stroke-dasharray:none;stroke-dashoffset:0;stroke-opacity:1;color-rendering:auto;image-rendering:auto;shape-rendering:auto;text-rendering:auto;enable-background:accumulate;stop-color:#000000"
         d="m -58.011063,313.48052 c -0.152228,0 -0.294615,0.0412 -0.41211,0.12695 -0.117495,0.0858 -0.214844,0.2318 -0.214844,0.40235 v 4.49804 c 0,0.17055 0.09735,0.31462 0.214844,0.40039 0.117495,0.0858 0.259882,0.12891 0.41211,0.12891 h 13.048828 c 0.152228,0 0.294614,-0.0431 0.412109,-0.12891 0.117495,-0.0858 0.214844,-0.22984 0.214844,-0.40039 v -4.49804 c 0,-0.17055 -0.09735,-0.31657 -0.214844,-0.40235 -0.117495,-0.0858 -0.259881,-0.12695 -0.412109,-0.12695 z"
         id="path1267" />
      <path
         style="color:#000000;font-style:normal;font-variant:normal;font-weight:normal;font-stretch:normal;font-size:medium;line-height:normal;font-family:sans-serif;font-variant-ligatures:normal;font-variant-position:normal;font-variant-caps:normal;font-variant-numeric:normal;font-variant-alternates:normal;font-variant-east-asian:normal;font-feature-settings:normal;font-variation-settings:normal;text-indent:0;text-align:start;text-decoration:none;text-decoration-line:none;text-decoration-style:solid;text-decoration-color:#000000;letter-spacing:normal;word-spacing:normal;text-transform:none;writing-mode:lr-tb;direction:ltr;text-orientation:mixed;dominant-baseline:auto;baseline-shift:baseline;text-anchor:start;white-space:normal;shape-padding:0;shape-margin:0;inline-size:0;clip-rule:nonzero;display:inline;overflow:visible;visibility:visible;isolation:auto;mix-blend-mode:normal;color-interpolation:sRGB;color-interpolation-filters:linearRGB;solid-color:#000000;solid-opacity:1;vector-effect:none;fill:#7d8e9e;fill-opacity:1;fill-rule:nonzero;stroke:none;stroke-width:0.42058;stroke-linecap:round;stroke-linejoin:round;stroke-miterlimit:4;stroke-dasharray:none;stroke-dashoffset:0;stroke-opacity:1;color-rendering:auto;image-rendering:auto;shape-rendering:auto;text-rendering:auto;enable-background:accumulate;stop-color:#000000"
         d="m -47.441524,314.68974 c -0.263301,0 -0.482938,0.21963 -0.482938,0.48294 v 2.17232 c 0,0.26331 0.219626,0.48294 0.482938,0.48294 h 1.448812 c 0.263312,0 0.482938,-0.21963 0.482938,-0.48294 v -2.17232 c 0,-0.26331 -0.219637,-0.48294 -0.482938,-0.48294 z"
         id="path1172" />
      <path
         id="path1359"
         style="fill:#143441;fill-opacity:1;stroke:none;stroke-width:0.42058;stroke-linecap:round;stroke-linejoin:round;stroke-opacity:1"
         d="m -52.802064,321.94712 a 0.26460996,0.26460996 0 0 0 -0.261482,0.22686 l -0.10387,0.72192 3.371887,-0.0233 -0.100253,-0.69867 a 0.26460996,0.26460996 0 0 0 -0.261999,-0.22686 z" />
      <path
         id="path1306"
         style="color:#000000;font-style:normal;font-variant:normal;font-weight:normal;font-stretch:normal;font-size:medium;line-height:normal;font-family:sans-serif;font-variant-ligatures:normal;font-variant-position:normal;font-variant-caps:normal;font-variant-numeric:normal;font-variant-alternates:normal;font-variant-east-asian:normal;font-feature-settings:normal;font-variation-settings:normal;text-indent:0;text-align:start;text-decoration:none;text-decoration-line:none;text-decoration-style:solid;text-decoration-color:#000000;letter-spacing:normal;word-spacing:normal;text-transform:none;writing-mode:lr-tb;direction:ltr;text-orientation:mixed;dominant-baseline:auto;baseline-shift:baseline;text-anchor:start;white-space:normal;shape-padding:0;shape-margin:0;inline-size:0;clip-rule:nonzero;display:inline;overflow:visible;visibility:visible;isolation:auto;mix-blend-mode:normal;color-interpolation:sRGB;color-interpolation-filters:linearRGB;solid-color:#000000;solid-opacity:1;vector-effect:none;fill:#f5f6e8;fill-opacity:1;fill-rule:nonzero;stroke:none;stroke-width:0.42058;stroke-linecap:round;stroke-linejoin:round;stroke-miterlimit:4;stroke-dasharray:none;stroke-dashoffset:0;stroke-opacity:1;color-rendering:auto;image-rendering:auto;shape-rendering:auto;text-rendering:auto;enable-background:accumulate;stop-color:#000000"
         d="m -43.278614,320.62265 -16.402616,5.3e-4 v 0.83561 c 0,0.26304 0.07813,0.50579 0.222723,0.6935 0.144598,0.18772 0.368491,0.32452 0.621152,0.32452 h 14.714866 c 0.252661,0 0.476554,-0.1368 0.621149,-0.32452 0.144597,-0.18771 0.222726,-0.43046 0.222726,-0.6935 z" />
      <path
         id="path1354"
         style="fill:#dae3ce;fill-opacity:1;stroke:none;stroke-width:0.42058;stroke-linecap:round;stroke-linejoin:round;stroke-opacity:1"
         d="m -46.71303,320.62265 -0.0078,1.85416 h 2.598293 c 0.06316,0 0.124669,-0.009 0.183449,-0.0243 0.176339,-0.0473 0.329255,-0.15945 0.4377,-0.30024 0.144597,-0.18771 0.222726,-0.43046 0.222726,-0.6935 v -0.83613 z" />
      <path
         id="path1364"
         style="fill:#143441;fill-opacity:1;stroke:none;stroke-width:0.42058;stroke-linecap:round;stroke-linejoin:round;stroke-opacity:1"
         d="m -45.130181,325.12109 a 0.2645835,0.2645835 0 0 0 -0.263549,0.26562 0.2645835,0.2645835 0 0 0 0.263549,0.26355 h 0.265618 a 0.2645835,0.2645835 0 0 0 0.263548,-0.26355 0.2645835,0.2645835 0 0 0 -0.263548,-0.26562 z" />
      <path
         id="path1366"
         style="fill:#dae3ce;fill-opacity:1;stroke:none;stroke-width:0.42058;stroke-linecap:round;stroke-linejoin:round;stroke-opacity:1"
         d="m -53.260952,323.79869 c 1.195774,0.38292 2.807235,0.22725 4.105178,0.65991 0.48904,0.16301 1.052255,0.69098 1.653127,1.19166 h 0.255283 c 0.425313,0 0.70303,-0.48848 0.484209,-0.85318 l -0.248047,-0.416 c -0.216522,-0.36087 -0.608552,-0.58239 -1.029396,-0.58239 z" />
      <path
         id="path1371"
         style="fill:#143441;fill-opacity:1;stroke:none;stroke-width:0.42058;stroke-linecap:round;stroke-linejoin:round;stroke-opacity:1"
         d="m -48.135165,325.12109 c 0.204515,0.16938 0.416274,0.34898 0.632518,0.52917 h 1.313616 a 0.2645835,0.2645835 0 0 0 0.265616,-0.26355 0.2645835,0.2645835 0 0 0 -0.265616,-0.26562 z" />
      <path
         id="path1136"
         style="color:#000000;font-style:normal;font-variant:normal;font-weight:normal;font-stretch:normal;font-size:medium;line-height:normal;font-family:sans-serif;font-variant-ligatures:normal;font-variant-position:normal;font-variant-caps:normal;font-variant-numeric:normal;font-variant-alternates:normal;font-variant-east-asian:normal;font-feature-settings:normal;font-variation-settings:normal;text-indent:0;text-align:start;text-decoration:none;text-decoration-line:none;text-decoration-style:solid;text-decoration-color:#000000;letter-spacing:normal;word-spacing:normal;text-transform:none;writing-mode:lr-tb;direction:ltr;text-orientation:mixed;dominant-baseline:auto;baseline-shift:baseline;text-anchor:start;white-space:normal;shape-padding:0;shape-margin:0;inline-size:0;clip-rule:nonzero;display:inline;overflow:visible;visibility:visible;isolation:auto;mix-blend-mode:normal;color-interpolation:sRGB;color-interpolation-filters:linearRGB;solid-color:#000000;solid-opacity:1;vector-effect:none;fill:#000000;fill-opacity:1;fill-rule:nonzero;stroke:none;stroke-width:0.42058;stroke-linecap:round;stroke-linejoin:round;stroke-miterlimit:4;stroke-dasharray:none;stroke-dashoffset:0;stroke-opacity:1;color-rendering:auto;image-rendering:auto;shape-rendering:auto;text-rendering:auto;enable-background:accumulate;stop-color:#000000"
         d="m -58.837354,312.42213 c -0.252661,0 -0.476554,0.13423 -0.621152,0.32195 -0.144595,0.18771 -0.222723,0.43252 -0.222723,0.69556 v 8.01915 c 0,0.26304 0.07813,0.50579 0.222723,0.6935 0.144598,0.18772 0.368491,0.32452 0.621152,0.32452 h 5.730399 l -0.19017,1.32189 h -1.622123 c -0.420841,0 -0.812871,0.22152 -1.029393,0.58239 l -0.248047,0.416 c -0.06174,0.1029 -0.0803,0.21511 -0.0708,0.32401 h -0.503328 a 0.26458349,0.26458349 0 0 0 -0.265618,0.26561 0.26458349,0.26458349 0 0 0 0.265618,0.26355 h 10.581784 a 0.26458349,0.26458349 0 0 0 0.265615,-0.26355 0.26458349,0.26458349 0 0 0 -0.265615,-0.26561 h -0.50333 c 0.0095,-0.10891 -0.009,-0.2211 -0.0708,-0.32401 l -0.248047,-0.416 c -0.216522,-0.36087 -0.608552,-0.58239 -1.029396,-0.58239 h -1.622123 l -0.189654,-1.32189 h 5.729886 c 0.252661,0 0.476554,-0.1368 0.621149,-0.32452 0.144598,-0.18771 0.222726,-0.43046 0.222726,-0.6935 v -8.01915 c 0,-0.26304 -0.07813,-0.50785 -0.222726,-0.69556 -0.144595,-0.18772 -0.368488,-0.32195 -0.621149,-0.32195 z m 0,0.52917 h 14.714866 c 0.06831,0 0.136173,0.0331 0.20102,0.1173 0.06485,0.0842 0.115239,0.21738 0.115239,0.37104 v 7.18354 h -15.347384 v -7.18354 c 0,-0.15366 0.05039,-0.28685 0.115239,-0.37104 0.06485,-0.0842 0.132707,-0.1173 0.20102,-0.1173 z m 0.826307,0.52916 c -0.152228,0 -0.294884,0.0414 -0.41238,0.12713 -0.117493,0.0858 -0.214455,0.23149 -0.214455,0.40204 v 4.49843 c 0,0.17055 0.09696,0.31421 0.214455,0.39998 0.117496,0.0858 0.260152,0.12919 0.41238,0.12919 h 13.048817 c 0.152228,0 0.294364,-0.0434 0.411861,-0.12919 0.117493,-0.0858 0.214973,-0.22943 0.214973,-0.39998 v -4.49843 c 0,-0.17055 -0.09748,-0.31626 -0.214973,-0.40204 -0.117497,-0.0858 -0.259633,-0.12713 -0.411861,-0.12713 z m 0,0.52917 h 13.048817 c 0.04766,0 0.0835,0.0159 0.09767,0.0258 v 4.44521 c -0.01416,0.01 -0.04999,0.0274 -0.09767,0.0274 h -13.048817 c -0.04767,0 -0.0835,-0.0175 -0.09767,-0.0274 v -4.44517 c 0.01418,-0.01 0.05,-0.0258 0.09767,-0.0258 z m 1.231966,0.52917 a 0.26458349,0.26458349 0 0 0 -0.01497,5.3e-4 0.26458349,0.26458349 0 0 0 -0.177768,0.076 l -0.529683,0.52917 a 0.26460995,0.26460995 0 0 0 0,0.37517 l 0.529683,0.52916 a 0.26458349,0.26458349 0 0 0 0.373105,0 0.26458349,0.26458349 0 0 0 0,-0.37465 l -0.342099,-0.3421 0.342099,-0.34158 a 0.26458349,0.26458349 0 0 0 0,-0.37517 0.26458349,0.26458349 0 0 0 -0.180351,-0.0765 z m 2.646865,0 a 0.26458349,0.26458349 0 0 0 -0.0155,5.3e-4 0.26458349,0.26458349 0 0 0 -0.179834,0.076 0.26458349,0.26458349 0 0 0 0,0.37517 l 0.342098,0.34158 -0.342098,0.3421 a 0.26458349,0.26458349 0 0 0 0,0.37465 0.26458349,0.26458349 0 0 0 0.375171,0 l 0.529167,-0.52916 a 0.26460995,0.26460995 0 0 0 0,-0.37517 l -0.529167,-0.52917 a 0.26458349,0.26458349 0 0 0 -0.179835,-0.0765 z m -1.072285,5.3e-4 a 0.26458349,0.26458349 0 0 0 -0.230475,0.14624 l -0.529167,1.05678 a 0.26458349,0.26458349 0 0 0 0.118853,0.35554 0.26458349,0.26458349 0 0 0 0.355534,-0.11731 l 0.529685,-1.05885 a 0.26458349,0.26458349 0 0 0 -0.119372,-0.35502 0.26458349,0.26458349 0 0 0 -0.125058,-0.0274 z m 7.693587,0 c -0.288576,0 -0.529683,0.24058 -0.529683,0.52916 v 2.38074 c 0,0.28858 0.241094,0.52916 0.529683,0.52916 h 1.5875 c 0.288589,0 0.529685,-0.24058 0.529685,-0.52916 v -2.38074 c 0,-0.28858 -0.241107,-0.52916 -0.529685,-0.52916 z m 0,0.52916 h 1.5875 v 2.38074 h -1.5875 z m -5.041035,0.26355 a 0.26458349,0.26458349 0 0 0 -0.263549,0.26562 0.26458349,0.26458349 0 0 0 0.263549,0.26355 h 0.263548 a 0.26458349,0.26458349 0 0 0 0.265618,-0.26355 0.26458349,0.26458349 0 0 0 -0.265618,-0.26562 z m 1.321882,0 a 0.26458349,0.26458349 0 0 0 -0.263549,0.26562 0.26458349,0.26458349 0 0 0 0.263549,0.26355 h 2.383319 a 0.26458349,0.26458349 0 0 0 0.263549,-0.26355 0.26458349,0.26458349 0 0 0 -0.263549,-0.26562 z m -0.800468,1.05885 a 0.26458349,0.26458349 0 0 0 -0.179832,0.078 l -0.529167,0.52917 a 0.26460995,0.26460995 0 0 0 0,0.3731 l 0.529167,0.52917 a 0.26458349,0.26458349 0 0 0 0.375169,0 0.26458349,0.26458349 0 0 0 0,-0.37517 l -0.342096,-0.34158 0.342096,-0.34158 a 0.26458349,0.26458349 0 0 0 0,-0.37311 0.26458349,0.26458349 0 0 0 -0.195337,-0.078 z m 1.588019,0 a 0.26458349,0.26458349 0 0 0 -0.228929,0.14625 l -0.529166,1.05885 a 0.26458349,0.26458349 0 0 0 0.117305,0.35346 0.26458349,0.26458349 0 0 0 0.355534,-0.1173 l 0.529167,-1.05885 a 0.26458349,0.26458349 0 0 0 -0.118856,-0.35502 0.26458349,0.26458349 0 0 0 -0.125055,-0.0274 z m 1.056264,0 a 0.26458349,0.26458349 0 0 0 -0.177765,0.078 0.26458349,0.26458349 0 0 0 0,0.37311 l 0.342098,0.34158 -0.342098,0.34158 a 0.26458349,0.26458349 0 0 0 0,0.37517 0.26458349,0.26458349 0 0 0 0.373102,0 l 0.529685,-0.52917 a 0.26460995,0.26460995 0 0 0 0,-0.3731 l -0.529685,-0.52917 a 0.26458349,0.26458349 0 0 0 -0.195337,-0.078 z m -7.927682,0.79272 a 0.26458349,0.26458349 0 0 0 -0.265615,0.26562 0.26458349,0.26458349 0 0 0 0.265615,0.26354 h 2.38125 a 0.26458349,0.26458349 0 0 0 0.263552,-0.26354 0.26458349,0.26458349 0 0 0 -0.263552,-0.26562 z m 3.439584,0 a 0.26458349,0.26458349 0 0 0 -0.265615,0.26562 0.26458349,0.26458349 0 0 0 0.265615,0.26354 h 0.263551 a 0.26458349,0.26458349 0 0 0 0.265615,-0.26354 0.26458349,0.26458349 0 0 0 -0.265615,-0.26562 z m 0.939477,2.3828 a 0.26458349,0.26458349 0 0 0 -0.265615,0.26355 0.26458349,0.26458349 0 0 0 0.265615,0.26406 h 0.263551 a 0.26458349,0.26458349 0 0 0 0.265616,-0.26406 0.26458349,0.26458349 0 0 0 -0.265616,-0.26355 z m 1.322401,0 a 0.26458349,0.26458349 0 0 0 -0.264068,0.26355 0.26458349,0.26458349 0 0 0 0.264068,0.26406 h 0.265618 a 0.26458349,0.26458349 0 0 0 0.263548,-0.26406 0.26458349,0.26458349 0 0 0 -0.263548,-0.26355 z m 1.323951,0 a 0.26458349,0.26458349 0 0 0 -0.265618,0.26355 0.26458349,0.26458349 0 0 0 0.265618,0.26406 h 0.263549 a 0.26458349,0.26458349 0 0 0 0.265618,-0.26406 0.26458349,0.26458349 0 0 0 -0.265618,-0.26355 z m -8.865092,1.58595 h 15.347384 v 0.30644 c 0,0.15366 -0.05039,0.28736 -0.115239,0.37155 -0.06485,0.0842 -0.132707,0.11679 -0.20102,0.11679 h -14.714866 c -0.06831,0 -0.136173,-0.0326 -0.20102,-0.11679 -0.06485,-0.0842 -0.115239,-0.21789 -0.115239,-0.37155 z m 6.57996,1.32447 h 2.187464 l 0.18965,1.32188 h -2.566252 z m -2.345595,1.85156 h 6.878651 c 0.235747,0 0.453351,0.12186 0.574644,0.32401 l 0.249597,0.416 c 0.02082,0.0347 0.0094,0.0527 -0.03101,0.0527 h -8.465113 c -0.04046,0 -0.05183,-0.018 -0.03101,-0.0527 l 0.250113,-0.416 c 0.121293,-0.20215 0.338381,-0.32401 0.574125,-0.32401 z m -3.176032,0.79272 a 0.26458349,0.26458349 0 0 0 -0.263551,0.26562 0.26458349,0.26458349 0 0 0 0.263551,0.26354 h 0.265615 a 0.26458349,0.26458349 0 0 0 0.264068,-0.26354 0.26458349,0.26458349 0 0 0 -0.264068,-0.26562 z m 12.9651,0 a 0.26458349,0.26458349 0 0 0 -0.263549,0.26562 0.26458349,0.26458349 0 0 0 0.263549,0.26354 h 0.265618 a 0.26458349,0.26458349 0 0 0 0.263549,-0.26354 0.26458349,0.26458349 0 0 0 -0.263549,-0.26562 z" />
    </g>
  </g>
</svg>
